<svg id="visual" viewBox="0 0 900 600" width="900" height="600" xmlns="http://www.w3.org/2000/svg" xmlns:xlink="http://www.w3.org/1999/xlink" version="1.1"><rect x="0" y="0" width="900" height="600" fill="#001220"></rect><path d="M0 377L21.5 373C43 369 86 361 128.8 371C171.7 381 214.3 409 257.2 418.2C300 427.3 343 417.7 385.8 409.3C428.7 401 471.3 394 514.2 400.5C557 407 600 427 642.8 421C685.7 415 728.3 383 771.2 371.2C814 359.3 857 367.7 878.5 371.8L900 376L900 601L878.5 601C857 601 814 601 771.2 601C728.3 601 685.7 601 642.8 601C600 601 557 601 514.2 601C471.3 601 428.7 601 385.8 601C343 601 300 601 257.2 601C214.3 601 171.7 601 128.8 601C86 601 43 601 21.5 601L0 601Z" fill="#6600ff"></path><path d="M0 442L21.5 447.3C43 452.7 86 463.3 128.8 468.7C171.7 474 214.3 474 257.2 469.7C300 465.3 343 456.7 385.8 451.7C428.7 446.7 471.3 445.3 514.2 444.8C557 444.3 600 444.7 642.8 450.2C685.7 455.7 728.3 466.3 771.2 463C814 459.7 857 442.3 878.5 433.7L900 425L900 601L878.5 601C857 601 814 601 771.2 601C728.3 601 685.7 601 642.8 601C600 601 557 601 514.2 601C471.3 601 428.7 601 385.8 601C343 601 300 601 257.2 601C214.3 601 171.7 601 128.8 601C86 601 43 601 21.5 601L0 601Z" fill="#0062ff"></path><path d="M0 453L21.5 457C43 461 86 469 128.8 468C171.7 467 214.3 457 257.2 455.3C300 453.7 343 460.3 385.8 464.2C428.7 468 471.3 469 514.2 465.7C557 462.3 600 454.7 642.8 458C685.7 461.3 728.3 475.7 771.2 476C814 476.3 857 462.7 878.5 455.8L900 449L900 601L878.5 601C857 601 814 601 771.2 601C728.3 601 685.7 601 642.8 601C600 601 557 601 514.2 601C471.3 601 428.7 601 385.8 601C343 601 300 601 257.2 601C214.3 601 171.7 601 128.8 601C86 601 43 601 21.5 601L0 601Z" fill="#0086e9"></path><path d="M0 501L21.5 507C43 513 86 525 128.8 527.3C171.7 529.7 214.3 522.3 257.2 515.3C300 508.3 343 501.7 385.8 503.5C428.7 505.3 471.3 515.7 514.2 515.3C557 515 600 504 642.8 499.7C685.7 495.3 728.3 497.7 771.2 501C814 504.3 857 508.7 878.5 510.8L900 513L900 601L878.5 601C857 601 814 601 771.2 601C728.3 601 685.7 601 642.8 601C600 601 557 601 514.2 601C471.3 601 428.7 601 385.8 601C343 601 300 601 257.2 601C214.3 601 171.7 601 128.8 601C86 601 43 601 21.5 601L0 601Z" fill="#0096bd"></path><path d="M0 534L21.5 536C43 538 86 542 128.8 548.3C171.7 554.7 214.3 563.3 257.2 567.8C300 572.3 343 572.7 385.8 572.5C428.7 572.3 471.3 571.7 514.2 564.8C557 558 600 545 642.8 539.7C685.7 534.3 728.3 536.7 771.2 541.8C814 547 857 555 878.5 559L900 563L900 601L878.5 601C857 601 814 601 771.2 601C728.3 601 685.7 601 642.8 601C600 601 557 601 514.2 601C471.3 601 428.7 601 385.8 601C343 601 300 601 257.2 601C214.3 601 171.7 601 128.8 601C86 601 43 601 21.5 601L0 601Z" fill="#009473"></path></svg>